<svg version="1.1" id="Layer_1" xmlns="http://www.w3.org/2000/svg" xmlns:xlink="http://www.w3.org/1999/xlink" x="0px" y="0px"
	 width="100%" viewBox="0 0 1280 1280" enable-background="new 0 0 1280 1280" xml:space="preserve">
<path fill="#000000" opacity="1.000000" stroke="none" 
	d="
M689.000000,1281.000000 
	C459.333344,1281.000000 230.166672,1281.000000 1.000000,1281.000000 
	C1.000000,854.333313 1.000000,427.666656 1.000000,1.000000 
	C427.666656,1.000000 854.333313,1.000000 1281.000000,1.000000 
	C1281.000000,427.666656 1281.000000,854.333313 1281.000000,1281.000000 
	C1083.833374,1281.000000 886.666687,1281.000000 689.000000,1281.000000 
M325.023895,670.031555 
	C325.357513,671.470886 325.648804,672.921631 326.031097,674.347900 
	C331.907440,696.271057 346.984558,708.703674 367.565399,708.783386 
	C483.551849,709.232849 599.541321,709.100891 715.528442,708.740845 
	C722.217224,708.720093 729.466187,705.998535 735.466614,702.723999 
	C751.566284,693.937866 757.529175,678.759399 757.887085,661.353455 
	C758.346069,639.031860 758.095520,616.692810 757.915588,594.363220 
	C757.880371,589.987976 757.177185,585.518311 756.092407,581.268188 
	C750.803894,560.548523 732.150574,546.876770 708.771851,546.916504 
	C598.450012,547.103882 488.127716,546.988342 377.805603,547.041260 
	C373.194458,547.043457 368.581421,547.621338 363.972931,547.977844 
	C341.831207,549.690735 324.496307,570.944214 324.887329,592.123718 
	C325.361023,617.779053 325.003082,643.449768 325.023895,670.031555 
M774.922607,636.055542 
	C777.726868,645.069702 779.859009,654.364197 783.476379,663.039307 
	C790.837280,680.692261 804.220520,693.206665 821.039124,701.535767 
	C836.806519,709.344360 853.727844,712.257568 871.409241,709.202576 
	C888.335999,706.278076 903.416687,699.650696 915.947205,687.722839 
	C927.746460,676.491028 935.562500,663.053345 939.784790,647.182556 
	C943.344421,633.802490 943.696167,620.434631 940.625122,607.275024 
	C937.678345,594.648193 932.020203,583.065979 923.690491,572.683472 
	C909.172546,554.587280 890.264404,544.493774 867.736328,542.078552 
	C847.254700,539.882629 827.920105,544.393250 810.593811,556.544128 
	C795.872803,566.867920 786.359497,580.745605 779.663452,597.107422 
	C774.618103,609.435608 774.637512,622.228882 774.922607,636.055542 
M887.609863,487.982544 
	C895.978760,489.969635 904.555725,491.339752 912.671753,494.076599 
	C927.982239,499.239502 941.486389,507.574585 953.877991,518.135010 
	C970.495361,532.296875 982.553833,549.495422 989.831848,569.802124 
	C993.978149,581.370728 996.210449,593.625305 999.675781,607.004150 
	C1004.280640,607.004150 1010.091309,606.007263 1015.366394,607.261963 
	C1021.659729,608.758911 1021.633118,605.499084 1020.915039,601.691284 
	C1018.835449,590.664734 1016.648193,579.641968 1013.970276,568.748657 
	C1010.024048,552.695923 1002.222351,538.295471 992.426453,525.225281 
	C985.718323,516.274902 977.791443,508.114288 969.667603,500.379639 
	C959.353638,490.559692 947.208130,483.015015 934.246399,477.259186 
	C921.952393,471.799866 909.311340,466.902496 895.625610,465.810486 
	C884.652649,464.934967 873.688049,463.954834 862.720276,463.014740 
	C859.853210,462.768982 858.782837,464.202362 858.999695,466.906067 
	C859.342712,471.182190 859.849792,475.455109 859.957886,479.737732 
	C860.126526,486.424835 861.248840,487.221497 867.913391,487.057251 
	C874.167969,486.903107 880.442993,487.584290 887.609863,487.982544 
M970.936279,569.700745 
	C965.328369,560.940918 960.514160,551.515625 953.886353,543.610901 
	C947.428894,535.909180 939.625305,529.070068 931.497620,523.097534 
	C919.433105,514.232117 905.660400,508.618225 890.713562,506.500793 
	C881.357544,505.175385 871.936584,504.309265 861.745178,503.145752 
	C862.224854,510.627350 862.940979,516.674988 862.889404,522.716064 
	C862.852295,527.052124 864.715332,527.967041 868.523926,528.004578 
	C873.770020,528.056274 879.048340,528.356384 884.247070,529.046265 
	C901.864624,531.384033 916.932739,539.414246 929.688232,551.372131 
	C943.911682,564.706055 952.398010,581.441467 956.093689,600.620483 
	C956.336426,601.880127 957.791321,603.751953 958.845093,603.868530 
	C964.556458,604.500671 970.322876,604.615295 976.062561,605.018677 
	C979.668213,605.272095 980.669434,603.137817 979.892639,600.345581 
	C977.109497,590.341309 974.047180,580.414612 970.936279,569.700745 
z"/>
<path fill="#00A53D" opacity="1.000000" stroke="none" 
	d="
M325.014465,669.572693 
	C325.003082,643.449768 325.361023,617.779053 324.887329,592.123718 
	C324.496307,570.944214 341.831207,549.690735 363.972931,547.977844 
	C368.581421,547.621338 373.194458,547.043457 377.805603,547.041260 
	C488.127716,546.988342 598.450012,547.103882 708.771851,546.916504 
	C732.150574,546.876770 750.803894,560.548523 756.092407,581.268188 
	C757.177185,585.518311 757.880371,589.987976 757.915588,594.363220 
	C758.095520,616.692810 758.346069,639.031860 757.887085,661.353455 
	C757.529175,678.759399 751.566284,693.937866 735.466614,702.723999 
	C729.466187,705.998535 722.217224,708.720093 715.528442,708.740845 
	C599.541321,709.100891 483.551849,709.232849 367.565399,708.783386 
	C346.984558,708.703674 331.907440,696.271057 326.031097,674.347900 
	C325.648804,672.921631 325.357513,671.470886 325.014465,669.572693 
M730.000000,590.645020 
	C729.993225,589.478760 730.065613,588.305847 729.967346,587.147339 
	C729.016724,575.939270 722.183533,565.901733 711.562500,563.820862 
	C702.321655,562.010315 692.566528,565.439026 687.013123,574.196106 
	C682.567688,581.205994 679.142090,588.856079 674.869690,595.985901 
	C673.469666,598.322327 670.832825,599.917786 668.761597,601.852051 
	C667.048157,599.981873 664.943054,598.340271 663.693420,596.199341 
	C659.668884,589.303711 656.333679,581.984192 652.033875,575.276062 
	C646.702698,566.958923 637.454773,561.237732 625.446777,564.055481 
	C619.613342,565.424377 615.777222,569.120911 612.393066,573.480957 
	C607.215393,580.151611 607.368347,579.812317 600.378357,575.040405 
	C594.139587,570.781372 587.478210,566.393127 580.347351,564.335388 
	C562.047913,559.054688 544.768188,562.192932 529.435608,574.001770 
	C525.734497,576.852295 522.139282,577.740112 518.279846,574.214722 
	C516.450317,572.543701 514.458252,570.976440 512.329102,569.719116 
	C491.272980,557.284485 458.657196,560.112915 444.674133,577.785889 
	C444.067108,578.553040 443.164673,579.083679 442.413635,579.740295 
	C439.398163,582.376465 437.057587,582.334595 434.913940,578.481628 
	C431.451080,572.257446 426.206482,567.596130 419.292877,566.096069 
	C410.429138,564.172913 401.276093,561.965393 392.347504,562.329285 
	C378.125275,562.908875 365.037170,568.096802 356.555328,580.368408 
	C343.335541,599.494934 346.336273,628.924316 370.169678,641.629456 
	C373.413971,643.358826 376.431885,645.512756 379.554596,647.470093 
	C376.243134,649.060059 373.358093,649.734131 370.438782,649.954712 
	C360.897827,650.675232 353.403168,656.275757 351.069092,664.643005 
	C348.666199,673.256836 351.916412,682.542114 359.759491,687.785645 
	C373.329712,696.858032 388.660156,697.200134 404.045807,695.343262 
	C415.295624,693.985535 424.725128,688.476135 432.513824,680.077393 
	C437.488159,674.713440 438.034210,675.367126 443.815460,680.087524 
	C449.793274,684.968262 456.040710,690.525452 463.132172,692.841980 
	C482.389343,699.132629 501.249268,697.891602 517.933655,684.691895 
	C521.464172,681.898804 524.925842,680.116150 528.993347,683.662537 
	C540.619751,693.799683 554.317810,697.036865 569.404541,696.036682 
	C580.928223,695.272766 591.219238,691.654236 599.740234,683.720642 
	C606.288330,677.623901 607.351807,677.639893 612.234131,684.824585 
	C621.029053,697.766785 637.479431,698.881775 647.392395,686.878784 
	C649.734314,684.043091 650.821472,680.121094 652.271423,676.610229 
	C654.613647,670.938843 655.660706,670.663818 661.749390,671.595581 
	C666.232544,672.281738 670.994385,672.492676 675.442200,671.760986 
	C682.834717,670.545044 683.699646,670.656311 686.035828,677.615601 
	C686.407043,678.721313 686.730652,679.845093 687.148376,680.932739 
	C691.990906,693.540283 707.002686,699.027649 718.549133,692.143677 
	C726.973450,687.121094 729.907837,678.891663 729.954285,669.601196 
	C730.084229,643.604736 729.999817,617.607117 730.000000,590.645020 
z"/>
<path fill="#AA0000" opacity="1.000000" stroke="none" 
	d="
M774.888916,635.592896 
	C774.637512,622.228882 774.618103,609.435608 779.663452,597.107422 
	C786.359497,580.745605 795.872803,566.867920 810.593811,556.544128 
	C827.920105,544.393250 847.254700,539.882629 867.736328,542.078552 
	C890.264404,544.493774 909.172546,554.587280 923.690491,572.683472 
	C932.020203,583.065979 937.678345,594.648193 940.625122,607.275024 
	C943.696167,620.434631 943.344421,633.802490 939.784790,647.182556 
	C935.562500,663.053345 927.746460,676.491028 915.947205,687.722839 
	C903.416687,699.650696 888.335999,706.278076 871.409241,709.202576 
	C853.727844,712.257568 836.806519,709.344360 821.039124,701.535767 
	C804.220520,693.206665 790.837280,680.692261 783.476379,663.039307 
	C779.859009,654.364197 777.726868,645.069702 774.888916,635.592896 
M821.184570,600.647217 
	C814.328735,610.671387 812.155762,621.513977 814.140808,633.607788 
	C817.817078,656.005920 835.396179,670.760864 857.224121,671.565857 
	C875.528137,672.240967 889.875244,663.628967 898.371826,647.833069 
	C906.258606,633.171021 906.689636,617.452759 897.400208,602.615601 
	C888.306641,588.091309 874.992981,580.339417 857.959045,580.444519 
	C842.702087,580.538635 830.386536,587.345276 821.184570,600.647217 
z"/>
<path fill="#FF0000" opacity="1.000000" stroke="none" 
	d="
M887.159424,487.940216 
	C880.442993,487.584290 874.167969,486.903107 867.913391,487.057251 
	C861.248840,487.221497 860.126526,486.424835 859.957886,479.737732 
	C859.849792,475.455109 859.342712,471.182190 858.999695,466.906067 
	C858.782837,464.202362 859.853210,462.768982 862.720276,463.014740 
	C873.688049,463.954834 884.652649,464.934967 895.625610,465.810486 
	C909.311340,466.902496 921.952393,471.799866 934.246399,477.259186 
	C947.208130,483.015015 959.353638,490.559692 969.667603,500.379639 
	C977.791443,508.114288 985.718323,516.274902 992.426453,525.225281 
	C1002.222351,538.295471 1010.024048,552.695923 1013.970276,568.748657 
	C1016.648193,579.641968 1018.835449,590.664734 1020.915039,601.691284 
	C1021.633118,605.499084 1021.659729,608.758911 1015.366394,607.261963 
	C1010.091309,606.007263 1004.280640,607.004150 999.675781,607.004150 
	C996.210449,593.625305 993.978149,581.370728 989.831848,569.802124 
	C982.553833,549.495422 970.495361,532.296875 953.877991,518.135010 
	C941.486389,507.574585 927.982239,499.239502 912.671753,494.076599 
	C904.555725,491.339752 895.978760,489.969635 887.159424,487.940216 
z"/>
<path fill="#FF0000" opacity="1.000000" stroke="none" 
	d="
M971.013367,570.079712 
	C974.047180,580.414612 977.109497,590.341309 979.892639,600.345581 
	C980.669434,603.137817 979.668213,605.272095 976.062561,605.018677 
	C970.322876,604.615295 964.556458,604.500671 958.845093,603.868530 
	C957.791321,603.751953 956.336426,601.880127 956.093689,600.620483 
	C952.398010,581.441467 943.911682,564.706055 929.688232,551.372131 
	C916.932739,539.414246 901.864624,531.384033 884.247070,529.046265 
	C879.048340,528.356384 873.770020,528.056274 868.523926,528.004578 
	C864.715332,527.967041 862.852295,527.052124 862.889404,522.716064 
	C862.940979,516.674988 862.224854,510.627350 861.745178,503.145752 
	C871.936584,504.309265 881.357544,505.175385 890.713562,506.500793 
	C905.660400,508.618225 919.433105,514.232117 931.497620,523.097534 
	C939.625305,529.070068 947.428894,535.909180 953.886353,543.610901 
	C960.514160,551.515625 965.328369,560.940918 971.013367,570.079712 
z"/>
<path fill="#009D3A" opacity="1.000000" stroke="none" 
	d="
M730.000000,591.127502 
	C729.999817,617.607117 730.084229,643.604736 729.954285,669.601196 
	C729.907837,678.891663 726.973450,687.121094 718.549133,692.143677 
	C707.002686,699.027649 691.990906,693.540283 687.148376,680.932739 
	C686.730652,679.845093 686.407043,678.721313 686.035828,677.615601 
	C683.699646,670.656311 682.834717,670.545044 675.442200,671.760986 
	C670.994385,672.492676 666.232544,672.281738 661.749390,671.595581 
	C655.660706,670.663818 654.613647,670.938843 652.271423,676.610229 
	C650.821472,680.121094 649.734314,684.043091 647.392395,686.878784 
	C637.479431,698.881775 621.029053,697.766785 612.234131,684.824585 
	C607.351807,677.639893 606.288330,677.623901 599.740234,683.720642 
	C591.219238,691.654236 580.928223,695.272766 569.404541,696.036682 
	C554.317810,697.036865 540.619751,693.799683 528.993347,683.662537 
	C524.925842,680.116150 521.464172,681.898804 517.933655,684.691895 
	C501.249268,697.891602 482.389343,699.132629 463.132172,692.841980 
	C456.040710,690.525452 449.793274,684.968262 443.815460,680.087524 
	C438.034210,675.367126 437.488159,674.713440 432.513824,680.077393 
	C424.725128,688.476135 415.295624,693.985535 404.045807,695.343262 
	C388.660156,697.200134 373.329712,696.858032 359.759491,687.785645 
	C351.916412,682.542114 348.666199,673.256836 351.069092,664.643005 
	C353.403168,656.275757 360.897827,650.675232 370.438782,649.954712 
	C373.358093,649.734131 376.243134,649.060059 379.554596,647.470093 
	C376.431885,645.512756 373.413971,643.358826 370.169678,641.629456 
	C346.336273,628.924316 343.335541,599.494934 356.555328,580.368408 
	C365.037170,568.096802 378.125275,562.908875 392.347504,562.329285 
	C401.276093,561.965393 410.429138,564.172913 419.292877,566.096069 
	C426.206482,567.596130 431.451080,572.257446 434.913940,578.481628 
	C437.057587,582.334595 439.398163,582.376465 442.413635,579.740295 
	C443.164673,579.083679 444.067108,578.553040 444.674133,577.785889 
	C458.657196,560.112915 491.272980,557.284485 512.329102,569.719116 
	C514.458252,570.976440 516.450317,572.543701 518.279846,574.214722 
	C522.139282,577.740112 525.734497,576.852295 529.435608,574.001770 
	C544.768188,562.192932 562.047913,559.054688 580.347351,564.335388 
	C587.478210,566.393127 594.139587,570.781372 600.378357,575.040405 
	C607.368347,579.812317 607.215393,580.151611 612.393066,573.480957 
	C615.777222,569.120911 619.613342,565.424377 625.446777,564.055481 
	C637.454773,561.237732 646.702698,566.958923 652.033875,575.276062 
	C656.333679,581.984192 659.668884,589.303711 663.693420,596.199341 
	C664.943054,598.340271 667.048157,599.981873 668.761597,601.852051 
	C670.832825,599.917786 673.469666,598.322327 674.869690,595.985901 
	C679.142090,588.856079 682.567688,581.205994 687.013123,574.196106 
	C692.566528,565.439026 702.321655,562.010315 711.562500,563.820862 
	C722.183533,565.901733 729.016724,575.939270 729.967346,587.147339 
	C730.065613,588.305847 729.993225,589.478760 730.000000,591.127502 
M417.510345,602.126404 
	C429.818787,599.896423 435.589264,587.581787 427.898834,578.829956 
	C424.562592,575.033325 419.686279,571.973145 414.907990,570.193604 
	C405.956055,566.859802 396.446289,566.422668 386.948303,568.091797 
	C378.188843,569.631042 370.127594,573.052002 364.108032,579.561951 
	C348.088501,596.886597 350.949402,626.222168 373.614105,637.252686 
	C380.041077,640.380676 386.896454,642.666565 393.166626,646.057495 
	C395.302063,647.212402 397.526489,650.627014 397.428864,652.911621 
	C397.286865,656.234070 393.819916,657.294434 390.512726,656.989502 
	C385.721832,656.547791 380.897430,656.273376 376.160248,655.487793 
	C367.815704,654.104004 359.901642,657.988159 356.873779,665.313599 
	C354.309906,671.516479 356.928925,679.685913 363.957397,683.838562 
	C380.303864,693.496460 397.428467,693.350708 414.806305,686.602600 
	C423.136414,683.367859 428.068024,676.398743 433.612823,669.991516 
	C438.007416,664.913330 439.651093,665.219238 443.452484,670.717896 
	C461.456787,696.760925 498.432373,698.729553 518.881470,674.668579 
	C521.421265,671.680054 523.790588,671.732666 526.536804,674.103394 
	C528.926086,676.166077 531.299500,678.248413 533.727722,680.264526 
	C551.070801,694.663879 576.438721,695.218384 594.185608,681.161255 
	C598.533691,677.717224 601.775696,672.901611 605.719910,668.907898 
	C606.881653,667.731506 608.763794,666.516663 610.210815,666.632385 
	C611.195618,666.711121 612.257507,668.972839 612.825806,670.436707 
	C613.907410,673.222595 614.472534,676.211609 615.585999,678.982117 
	C618.531250,686.310791 623.617371,689.302368 632.152405,688.995056 
	C638.549133,688.764771 644.269348,684.214905 646.273438,677.503418 
	C647.270874,674.162842 647.862549,670.703186 648.719299,667.318054 
	C650.115967,661.800171 652.175781,661.286377 657.310547,663.377869 
	C661.803162,665.207764 666.767700,666.603577 671.560669,666.724060 
	C674.916443,666.808472 678.374817,664.519592 681.714722,663.117615 
	C686.438599,661.134949 687.968140,661.714172 689.333557,666.678894 
	C690.125183,669.556824 690.474426,672.553162 691.145569,675.468018 
	C692.785583,682.591064 698.347473,688.231140 704.334595,688.945068 
	C713.282654,690.012085 718.899292,687.208374 722.358521,678.976257 
	C723.926392,675.245361 724.848022,670.959473 724.884216,666.914795 
	C725.108337,641.918396 725.087341,616.918335 724.902527,591.921265 
	C724.873535,588.001038 724.000916,583.960327 722.803406,580.203186 
	C720.643982,573.428528 713.811035,568.841797 706.691467,569.028748 
	C697.144653,569.279541 691.743042,575.506714 687.545532,583.030945 
	C683.492859,590.295532 679.984314,597.867065 675.834534,605.072144 
	C674.352112,607.645935 671.570618,611.408630 669.600159,611.280273 
	C667.061157,611.114929 664.132263,607.981628 662.462097,605.416443 
	C659.569885,600.974304 657.661072,595.905701 655.071960,591.248779 
	C652.168030,586.025574 649.330933,580.701965 645.819946,575.892700 
	C638.353760,565.665710 622.476257,566.901367 616.555176,578.029785 
	C614.924255,581.095032 613.991089,584.524231 612.557983,587.705383 
	C611.917480,589.127014 610.742615,591.482239 609.968750,591.420715 
	C608.440186,591.299072 606.753357,590.038574 605.610168,588.805603 
	C602.568481,585.525269 600.183716,581.536377 596.820496,578.671143 
	C583.813110,567.589417 568.610046,565.634888 552.298157,568.681335 
	C542.350403,570.539185 534.650818,576.086731 527.582764,582.885254 
	C523.480896,586.830688 522.002502,586.732605 518.126526,582.615295 
	C516.087402,580.449280 514.406250,577.791504 512.023376,576.130615 
	C501.649139,568.899353 489.995239,566.141907 477.510254,567.893555 
	C452.725433,571.370911 441.598175,582.594299 437.872467,607.664185 
	C437.191833,612.243958 437.342133,616.941162 436.926178,621.567749 
	C436.270660,628.858398 432.984375,630.597290 427.367950,626.104614 
	C419.685944,619.959656 411.028687,615.976868 401.881714,612.751099 
	C400.188507,612.153931 398.399353,611.255615 397.203461,609.981079 
	C395.986298,608.683960 394.478943,606.451050 394.873199,605.177124 
	C395.298523,603.802856 397.709442,602.366760 399.380829,602.195862 
	C402.816803,601.844299 406.336243,602.368835 409.823181,602.434753 
	C412.112030,602.477966 414.404114,602.349609 417.510345,602.126404 
z"/>
<path fill="#FF0000" opacity="1.000000" stroke="none" 
	d="
M821.385681,600.348755 
	C830.386536,587.345276 842.702087,580.538635 857.959045,580.444519 
	C874.992981,580.339417 888.306641,588.091309 897.400208,602.615601 
	C906.689636,617.452759 906.258606,633.171021 898.371826,647.833069 
	C889.875244,663.628967 875.528137,672.240967 857.224121,671.565857 
	C835.396179,670.760864 817.817078,656.005920 814.140808,633.607788 
	C812.155762,621.513977 814.328735,610.671387 821.385681,600.348755 
z"/>
<path fill="#068F39" opacity="1.000000" stroke="none" 
	d="
M417.102539,602.212219 
	C414.404114,602.349609 412.112030,602.477966 409.823181,602.434753 
	C406.336243,602.368835 402.816803,601.844299 399.380829,602.195862 
	C397.709442,602.366760 395.298523,603.802856 394.873199,605.177124 
	C394.478943,606.451050 395.986298,608.683960 397.203461,609.981079 
	C398.399353,611.255615 400.188507,612.153931 401.881714,612.751099 
	C411.028687,615.976868 419.685944,619.959656 427.367950,626.104614 
	C432.984375,630.597290 436.270660,628.858398 436.926178,621.567749 
	C437.342133,616.941162 437.191833,612.243958 437.872467,607.664185 
	C441.598175,582.594299 452.725433,571.370911 477.510254,567.893555 
	C489.995239,566.141907 501.649139,568.899353 512.023376,576.130615 
	C514.406250,577.791504 516.087402,580.449280 518.126526,582.615295 
	C522.002502,586.732605 523.480896,586.830688 527.582764,582.885254 
	C534.650818,576.086731 542.350403,570.539185 552.298157,568.681335 
	C568.610046,565.634888 583.813110,567.589417 596.820496,578.671143 
	C600.183716,581.536377 602.568481,585.525269 605.610168,588.805603 
	C606.753357,590.038574 608.440186,591.299072 609.968750,591.420715 
	C610.742615,591.482239 611.917480,589.127014 612.557983,587.705383 
	C613.991089,584.524231 614.924255,581.095032 616.555176,578.029785 
	C622.476257,566.901367 638.353760,565.665710 645.819946,575.892700 
	C649.330933,580.701965 652.168030,586.025574 655.071960,591.248779 
	C657.661072,595.905701 659.569885,600.974304 662.462097,605.416443 
	C664.132263,607.981628 667.061157,611.114929 669.600159,611.280273 
	C671.570618,611.408630 674.352112,607.645935 675.834534,605.072144 
	C679.984314,597.867065 683.492859,590.295532 687.545532,583.030945 
	C691.743042,575.506714 697.144653,569.279541 706.691467,569.028748 
	C713.811035,568.841797 720.643982,573.428528 722.803406,580.203186 
	C724.000916,583.960327 724.873535,588.001038 724.902527,591.921265 
	C725.087341,616.918335 725.108337,641.918396 724.884216,666.914795 
	C724.848022,670.959473 723.926392,675.245361 722.358521,678.976257 
	C718.899292,687.208374 713.282654,690.012085 704.334595,688.945068 
	C698.347473,688.231140 692.785583,682.591064 691.145569,675.468018 
	C690.474426,672.553162 690.125183,669.556824 689.333557,666.678894 
	C687.968140,661.714172 686.438599,661.134949 681.714722,663.117615 
	C678.374817,664.519592 674.916443,666.808472 671.560669,666.724060 
	C666.767700,666.603577 661.803162,665.207764 657.310547,663.377869 
	C652.175781,661.286377 650.115967,661.800171 648.719299,667.318054 
	C647.862549,670.703186 647.270874,674.162842 646.273438,677.503418 
	C644.269348,684.214905 638.549133,688.764771 632.152405,688.995056 
	C623.617371,689.302368 618.531250,686.310791 615.585999,678.982117 
	C614.472534,676.211609 613.907410,673.222595 612.825806,670.436707 
	C612.257507,668.972839 611.195618,666.711121 610.210815,666.632385 
	C608.763794,666.516663 606.881653,667.731506 605.719910,668.907898 
	C601.775696,672.901611 598.533691,677.717224 594.185608,681.161255 
	C576.438721,695.218384 551.070801,694.663879 533.727722,680.264526 
	C531.299500,678.248413 528.926086,676.166077 526.536804,674.103394 
	C523.790588,671.732666 521.421265,671.680054 518.881470,674.668579 
	C498.432373,698.729553 461.456787,696.760925 443.452484,670.717896 
	C439.651093,665.219238 438.007416,664.913330 433.612823,669.991516 
	C428.068024,676.398743 423.136414,683.367859 414.806305,686.602600 
	C397.428467,693.350708 380.303864,693.496460 363.957397,683.838562 
	C356.928925,679.685913 354.309906,671.516479 356.873779,665.313599 
	C359.901642,657.988159 367.815704,654.104004 376.160248,655.487793 
	C380.897430,656.273376 385.721832,656.547791 390.512726,656.989502 
	C393.819916,657.294434 397.286865,656.234070 397.428864,652.911621 
	C397.526489,650.627014 395.302063,647.212402 393.166626,646.057495 
	C386.896454,642.666565 380.041077,640.380676 373.614105,637.252686 
	C350.949402,626.222168 348.088501,596.886597 364.108032,579.561951 
	C370.127594,573.052002 378.188843,569.631042 386.948303,568.091797 
	C396.446289,566.422668 405.956055,566.859802 414.907990,570.193604 
	C419.686279,571.973145 424.562592,575.033325 427.898834,578.829956 
	C435.589264,587.581787 429.818787,599.896423 417.102539,602.212219 
M449.159393,669.856873 
	C449.159393,669.856873 449.187653,669.769775 449.140472,670.543091 
	C450.225464,671.648865 451.310455,672.754578 452.982971,674.116028 
	C455.021423,675.991455 457.059906,677.866882 459.214874,680.442322 
	C459.722076,681.062073 460.102570,681.921448 460.755066,682.266357 
	C475.001801,689.797668 489.503326,689.565857 504.065948,683.338745 
	C505.299011,682.811462 505.966492,680.961487 507.124298,679.094482 
	C507.784088,678.601807 508.434906,678.096558 509.105042,677.618347 
	C514.928284,673.463440 516.614990,668.186340 513.574036,663.618042 
	C510.440521,658.910828 504.322174,657.962769 498.524658,661.240723 
	C496.500214,662.385254 494.500092,663.638611 492.347107,664.479126 
	C479.416229,669.526917 467.262543,663.875244 466.332184,651.153992 
	C465.268066,636.603699 465.505676,621.881348 466.319641,607.297485 
	C466.857544,597.660339 473.109070,592.477478 482.783997,592.990540 
	C488.166962,593.276001 493.646332,595.456360 498.677185,597.693604 
	C504.469086,600.269287 510.241608,599.763672 513.411499,595.243896 
	C516.424500,590.947998 515.336670,586.242737 510.101044,581.795288 
	C508.524231,580.455872 506.619995,579.501892 504.809143,577.626160 
	C503.381714,576.421997 502.087311,574.411194 500.504333,574.150208 
	C492.748627,572.871216 484.912323,571.312500 477.112091,571.352051 
	C472.215637,571.376953 466.379272,571.731262 462.638123,577.074707 
	C462.638123,577.074707 462.230194,577.089478 461.504791,577.093140 
	C460.690369,577.784058 459.875946,578.474976 458.865601,579.820801 
	C456.356323,581.921936 453.847015,584.023071 450.635376,586.214661 
	C449.497589,587.356689 448.176666,588.367859 447.251648,589.661987 
	C441.159180,598.185791 441.095642,608.227966 440.274445,618.064331 
	C439.757111,624.261536 439.587616,630.503723 438.725586,636.650452 
	C438.195557,640.429871 435.574829,640.757874 432.686615,638.097046 
	C430.960449,636.506714 428.799957,635.387878 426.260590,633.745789 
	C424.177521,631.736206 422.094421,629.726685 419.960449,627.022278 
	C416.316986,624.406006 412.886230,621.398621 408.976471,619.271973 
	C404.049316,616.591980 398.425018,615.115967 393.717255,612.144836 
	C391.533997,610.767029 389.501343,606.967041 389.723053,604.471558 
	C390.059052,600.690125 393.479675,598.241577 397.565430,598.102234 
	C400.857819,597.989990 404.174133,598.634827 407.470306,598.554016 
	C408.993164,598.516724 410.493256,597.550049 412.902100,596.968994 
	C413.888153,597.093201 414.873413,597.317261 415.860352,597.324951 
	C421.201324,597.366455 425.604065,594.266357 426.681244,589.767151 
	C427.734863,585.366394 425.731232,581.512878 420.794769,578.860413 
	C418.616699,577.690063 416.275177,576.823914 413.776642,575.172852 
	C412.431213,574.271973 411.202911,572.955017 409.721283,572.537781 
	C400.259338,569.873352 390.836975,570.520874 381.658173,573.783997 
	C379.550507,574.533325 377.869568,576.482910 375.525482,578.376343 
	C371.364502,582.582458 367.203522,586.788635 362.354156,591.197815 
	C361.102905,593.785950 359.250793,596.256165 358.715607,598.984680 
	C357.244873,606.482971 357.080109,613.929443 363.594543,620.372437 
	C365.447113,622.748474 367.299683,625.124512 369.182159,628.250427 
	C370.290436,629.604370 371.127625,631.483582 372.554565,632.219971 
	C378.283752,635.176758 384.238983,637.691833 390.023438,640.546753 
	C393.409180,642.217651 397.014709,643.770447 399.840942,646.175842 
	C404.844727,650.434448 403.950073,657.073181 397.820862,659.346008 
	C394.002380,660.761963 389.463470,660.286499 385.240875,660.544922 
	C381.840820,660.752930 378.430237,660.788452 374.326477,660.965637 
	C373.888153,660.819092 373.449829,660.672485 372.762604,660.017761 
	C371.503632,660.068604 370.244659,660.119446 368.353149,660.616577 
	C358.349304,664.319214 357.438080,671.444702 366.137817,679.677734 
	C367.113464,680.729980 367.889618,682.226929 369.094788,682.767456 
	C385.869141,690.291016 402.417694,690.141602 418.391632,680.574219 
	C420.089478,679.557251 420.842896,676.963379 422.225800,674.597717 
	C422.522491,674.411072 422.819183,674.224426 423.830231,673.981934 
	C424.887390,673.288635 426.286224,672.827332 426.941956,671.861450 
	C429.637451,667.891113 432.170044,663.805176 434.641968,659.689392 
	C437.168274,655.483032 438.367737,655.453979 441.309326,659.434448 
	C443.181152,661.967407 445.326172,664.298462 447.212311,666.814026 
	C447.212311,666.814026 447.302643,666.675171 447.213348,667.410522 
	C447.890869,668.216003 448.568390,669.021423 449.159393,669.856873 
M654.603271,648.336914 
	C656.053650,651.137024 657.369446,654.017212 658.979797,656.722046 
	C663.678467,664.614380 674.173340,664.690186 679.009583,656.906738 
	C680.314880,654.805969 681.474243,652.614563 683.136719,650.978088 
	C683.746277,651.063416 684.617310,651.452637 684.925415,651.187561 
	C688.341919,648.248657 691.325623,648.176086 694.059631,652.120728 
	C694.438904,652.667969 695.529785,652.721924 696.567322,653.898132 
	C696.597900,660.896606 696.460510,667.901123 696.710327,674.891785 
	C696.923706,680.864746 701.585938,684.919800 707.623169,684.866882 
	C713.446899,684.815796 718.094238,680.822510 718.118408,675.046631 
	C718.245422,644.717773 718.233032,614.387939 718.129150,584.058899 
	C718.110229,578.527222 714.250793,574.633240 708.942627,573.953857 
	C702.846741,573.173645 698.654541,575.289490 695.862549,580.806702 
	C687.822205,596.695007 679.852844,612.619202 671.836975,628.519958 
	C671.077820,630.025940 670.186951,631.465515 669.099670,633.392273 
	C668.114136,631.640442 667.429077,630.524841 666.840393,629.360535 
	C658.650696,613.162964 650.533752,596.928284 642.262695,580.772461 
	C639.290771,574.967529 633.655762,572.610229 627.601013,574.194519 
	C622.373596,575.562256 619.921570,579.294556 619.918823,586.037720 
	C619.907104,615.200928 619.897827,644.364197 619.926025,673.527405 
	C619.932800,680.590759 623.928101,684.858521 630.346985,684.862183 
	C636.987732,684.865906 641.356201,680.461670 641.537659,673.470947 
	C641.688660,667.651733 641.741089,661.829895 642.526367,655.799927 
	C644.404968,650.297852 647.841064,647.068787 654.603271,648.336914 
M595.990845,671.434204 
	C601.760559,664.265991 604.363098,655.885559 604.585999,646.877502 
	C604.878418,635.058838 604.988708,623.216492 604.590210,611.404114 
	C603.878784,590.314941 592.430664,577.215271 572.534180,574.327881 
	C568.771851,573.781982 564.887512,573.853577 561.068298,573.959534 
	C539.961609,574.544678 525.694519,588.365173 524.895752,609.496826 
	C524.430542,621.804199 524.454956,634.150024 524.802063,646.463257 
	C525.267578,662.976685 532.054504,675.787659 548.156982,682.067322 
	C564.916077,688.602966 583.999756,684.388855 595.990845,671.434204 
M477.024658,605.562622 
	C476.022858,607.988770 474.233856,610.389832 474.155548,612.845398 
	C473.817932,623.435425 473.543671,634.063965 474.087097,644.635193 
	C474.622192,655.043823 480.901581,658.789673 490.929901,655.915039 
	C496.787445,654.235901 502.533081,652.105774 508.990723,653.768311 
	C513.370422,654.895874 516.582581,652.335144 516.721558,647.560852 
	C517.070251,635.579468 517.027344,623.577454 516.761902,611.592163 
	C516.666077,607.265442 514.233215,604.997803 509.284119,604.848755 
	C502.876465,604.655884 496.485718,603.469421 490.118652,602.506165 
	C485.569031,601.817871 481.145325,601.177551 477.024658,605.562622 
z"/>
<path fill="#FAFCFB" opacity="1.000000" stroke="none" 
	d="
M641.837158,656.009216 
	C641.741089,661.829895 641.688660,667.651733 641.537659,673.470947 
	C641.356201,680.461670 636.987732,684.865906 630.346985,684.862183 
	C623.928101,684.858521 619.932800,680.590759 619.926025,673.527405 
	C619.897827,644.364197 619.907104,615.200928 619.918823,586.037720 
	C619.921570,579.294556 622.373596,575.562256 627.601013,574.194519 
	C633.655762,572.610229 639.290771,574.967529 642.262695,580.772461 
	C650.533752,596.928284 658.650696,613.162964 666.840393,629.360535 
	C667.429077,630.524841 668.114136,631.640442 669.099670,633.392273 
	C670.186951,631.465515 671.077820,630.025940 671.836975,628.519958 
	C679.852844,612.619202 687.822205,596.695007 695.862549,580.806702 
	C698.654541,575.289490 702.846741,573.173645 708.942627,573.953857 
	C714.250793,574.633240 718.110229,578.527222 718.129150,584.058899 
	C718.233032,614.387939 718.245422,644.717773 718.118408,675.046631 
	C718.094238,680.822510 713.446899,684.815796 707.623169,684.866882 
	C701.585938,684.919800 696.923706,680.864746 696.710327,674.891785 
	C696.460510,667.901123 696.597900,660.896606 696.569336,652.999878 
	C696.482483,643.391113 696.393616,634.680725 696.449585,625.753540 
	C696.425171,625.242126 696.255859,624.947571 696.086548,624.652954 
	C695.765381,625.089539 695.444214,625.526062 694.884216,626.228027 
	C690.663818,634.483826 686.682251,642.474304 682.700684,650.464783 
	C681.474243,652.614563 680.314880,654.805969 679.009583,656.906738 
	C674.173340,664.690186 663.678467,664.614380 658.979797,656.722046 
	C657.369446,654.017212 656.053650,651.137024 654.294922,647.762146 
	C650.197083,639.765198 646.407593,632.343018 642.618103,624.920837 
	C642.357788,625.029236 642.097473,625.137695 641.837158,625.246094 
	C641.837158,635.500488 641.837158,645.754822 641.837158,656.009216 
z"/>
<path fill="#FAFCFB" opacity="1.000000" stroke="none" 
	d="
M595.767700,671.714111 
	C583.999756,684.388855 564.916077,688.602966 548.156982,682.067322 
	C532.054504,675.787659 525.267578,662.976685 524.802063,646.463257 
	C524.454956,634.150024 524.430542,621.804199 524.895752,609.496826 
	C525.694519,588.365173 539.961609,574.544678 561.068298,573.959534 
	C564.887512,573.853577 568.771851,573.781982 572.534180,574.327881 
	C592.430664,577.215271 603.878784,590.314941 604.590210,611.404114 
	C604.988708,623.216492 604.878418,635.058838 604.585999,646.877502 
	C604.363098,655.885559 601.760559,664.265991 595.767700,671.714111 
M580.976868,655.223083 
	C584.905151,639.621094 583.304749,623.766785 582.286011,608.095215 
	C581.614197,597.761780 574.578857,593.207397 563.774658,593.526672 
	C553.442810,593.831970 547.245117,598.888428 546.725464,609.245117 
	C546.067566,622.357727 546.147400,635.544617 546.690247,648.667175 
	C547.057556,657.545105 552.366577,663.237061 559.839966,664.817139 
	C568.801636,666.711792 575.911133,663.689026 580.976868,655.223083 
z"/>
<path fill="#FAFCFB" opacity="1.000000" stroke="none" 
	d="
M363.042542,590.994751 
	C367.203522,586.788635 371.364502,582.582458 376.130737,578.113525 
	C379.690826,576.855225 382.638062,575.042603 385.601929,575.015015 
	C395.067261,574.926758 404.538757,575.501099 414.007874,575.819702 
	C416.275177,576.823914 418.616699,577.690063 420.794769,578.860413 
	C425.731232,581.512878 427.734863,585.366394 426.681244,589.767151 
	C425.604065,594.266357 421.201324,597.366455 415.860352,597.324951 
	C414.873413,597.317261 413.888153,597.093201 412.135132,596.795532 
	C404.893280,595.708740 398.414276,594.066589 391.944794,594.103149 
	C386.365356,594.134583 383.244904,598.118408 382.519501,603.346863 
	C381.780121,608.676025 383.742340,612.643433 388.790405,615.116821 
	C391.896729,616.638855 395.251678,617.647400 398.470459,618.947205 
	C405.658936,621.850220 412.832001,624.791443 420.011353,627.717102 
	C422.094421,629.726685 424.177521,631.736206 426.631409,634.258667 
	C434.519897,648.732544 432.533142,661.752869 423.115906,674.037781 
	C422.819183,674.224426 422.522491,674.411072 421.818054,674.972046 
	C415.893494,680.145325 409.458344,682.928955 402.278168,684.101807 
	C389.652588,686.164246 377.612518,684.112549 366.004547,678.982361 
	C357.438080,671.444702 358.349304,664.319214 369.065002,660.483398 
	C370.855072,660.408813 371.933289,660.467407 373.011505,660.525940 
	C373.449829,660.672485 373.888153,660.819092 374.969116,661.154541 
	C382.756897,662.569641 389.882965,664.630127 397.052460,664.794373 
	C404.674286,664.969055 409.034271,659.628479 409.146545,652.327026 
	C409.237122,646.435730 407.156830,643.532104 401.205475,641.034241 
	C390.511475,636.545837 379.835663,632.014099 369.152252,627.500488 
	C367.299683,625.124512 365.447113,622.748474 363.288879,619.783936 
	C359.046570,609.786865 359.808411,600.388184 363.042542,590.994751 
z"/>
<path fill="#FAFCFB" opacity="1.000000" stroke="none" 
	d="
M462.230164,577.089478 
	C462.230194,577.089478 462.638123,577.074707 463.204651,577.051025 
	C477.631348,572.522888 491.332367,572.884766 504.865784,578.371338 
	C506.619995,579.501892 508.524231,580.455872 510.101044,581.795288 
	C515.336670,586.242737 516.424500,590.947998 513.411499,595.243896 
	C510.241608,599.763672 504.469086,600.269287 498.677185,597.693604 
	C493.646332,595.456360 488.166962,593.276001 482.783997,592.990540 
	C473.109070,592.477478 466.857544,597.660339 466.319641,607.297485 
	C465.505676,621.881348 465.268066,636.603699 466.332184,651.153992 
	C467.262543,663.875244 479.416229,669.526917 492.347107,664.479126 
	C494.500092,663.638611 496.500214,662.385254 498.524658,661.240723 
	C504.322174,657.962769 510.440521,658.910828 513.574036,663.618042 
	C516.614990,668.186340 514.928284,673.463440 509.105042,677.618347 
	C508.434906,678.096558 507.784088,678.601807 506.631958,679.459839 
	C500.203644,681.452637 494.356049,683.816956 488.311859,684.541626 
	C478.257965,685.747253 468.293304,684.632751 459.098358,679.742310 
	C457.059906,677.866882 455.021423,675.991455 452.602966,673.661133 
	C451.211182,672.060791 450.199402,670.915283 449.187653,669.769775 
	C449.187653,669.769775 449.159393,669.856873 449.175171,669.503784 
	C448.561493,668.325500 447.932068,667.500366 447.302643,666.675171 
	C447.302643,666.675171 447.212311,666.814026 447.231171,666.370850 
	C443.017365,639.039917 439.190796,612.172974 451.337708,586.124146 
	C453.847015,584.023071 456.356323,581.921936 459.302368,579.451111 
	C460.569458,578.417419 461.399811,577.753418 462.230164,577.089478 
z"/>
<path fill="#00A53D" opacity="1.000000" stroke="none" 
	d="
M477.282288,605.279541 
	C481.145325,601.177551 485.569031,601.817871 490.118652,602.506165 
	C496.485718,603.469421 502.876465,604.655884 509.284119,604.848755 
	C514.233215,604.997803 516.666077,607.265442 516.761902,611.592163 
	C517.027344,623.577454 517.070251,635.579468 516.721558,647.560852 
	C516.582581,652.335144 513.370422,654.895874 508.990723,653.768311 
	C502.533081,652.105774 496.787445,654.235901 490.929901,655.915039 
	C480.901581,658.789673 474.622192,655.043823 474.087097,644.635193 
	C473.543671,634.063965 473.817932,623.435425 474.155548,612.845398 
	C474.233856,610.389832 476.022858,607.988770 477.282288,605.279541 
z"/>
<path fill="#0A8B3A" opacity="1.000000" stroke="none" 
	d="
M450.986542,586.169434 
	C439.190796,612.172974 443.017365,639.039917 447.299377,666.323853 
	C445.326172,664.298462 443.181152,661.967407 441.309326,659.434448 
	C438.367737,655.453979 437.168274,655.483032 434.641968,659.689392 
	C432.170044,663.805176 429.637451,667.891113 426.941956,671.861450 
	C426.286224,672.827332 424.887390,673.288635 423.473083,674.009888 
	C432.533142,661.752869 434.519897,648.732544 426.918457,634.414307 
	C428.799957,635.387878 430.960449,636.506714 432.686615,638.097046 
	C435.574829,640.757874 438.195557,640.429871 438.725586,636.650452 
	C439.587616,630.503723 439.757111,624.261536 440.274445,618.064331 
	C441.095642,608.227966 441.159180,598.185791 447.251648,589.661987 
	C448.176666,588.367859 449.497589,587.356689 450.986542,586.169434 
z"/>
<path fill="#0A8B3A" opacity="1.000000" stroke="none" 
	d="
M369.167206,627.875488 
	C379.835663,632.014099 390.511475,636.545837 401.205475,641.034241 
	C407.156830,643.532104 409.237122,646.435730 409.146545,652.327026 
	C409.034271,659.628479 404.674286,664.969055 397.052460,664.794373 
	C389.882965,664.630127 382.756897,662.569641 375.318024,661.121948 
	C378.430237,660.788452 381.840820,660.752930 385.240875,660.544922 
	C389.463470,660.286499 394.002380,660.761963 397.820862,659.346008 
	C403.950073,657.073181 404.844727,650.434448 399.840942,646.175842 
	C397.014709,643.770447 393.409180,642.217651 390.023438,640.546753 
	C384.238983,637.691833 378.283752,635.176758 372.554565,632.219971 
	C371.127625,631.483582 370.290436,629.604370 369.167206,627.875488 
z"/>
<path fill="#0A8B3A" opacity="1.000000" stroke="none" 
	d="
M419.985901,627.369690 
	C412.832001,624.791443 405.658936,621.850220 398.470459,618.947205 
	C395.251678,617.647400 391.896729,616.638855 388.790405,615.116821 
	C383.742340,612.643433 381.780121,608.676025 382.519501,603.346863 
	C383.244904,598.118408 386.365356,594.134583 391.944794,594.103149 
	C398.414276,594.066589 404.893280,595.708740 411.685913,596.813416 
	C410.493256,597.550049 408.993164,598.516724 407.470306,598.554016 
	C404.174133,598.634827 400.857819,597.989990 397.565430,598.102234 
	C393.479675,598.241577 390.059052,600.690125 389.723053,604.471558 
	C389.501343,606.967041 391.533997,610.767029 393.717255,612.144836 
	C398.425018,615.115967 404.049316,616.591980 408.976471,619.271973 
	C412.886230,621.398621 416.316986,624.406006 419.985901,627.369690 
z"/>
<path fill="#0A8B3A" opacity="1.000000" stroke="none" 
	d="
M642.181763,655.904541 
	C641.837158,645.754822 641.837158,635.500488 641.837158,625.246094 
	C642.097473,625.137695 642.357788,625.029236 642.618103,624.920837 
	C646.407593,632.343018 650.197083,639.765198 654.022339,647.542725 
	C647.841064,647.068787 644.404968,650.297852 642.181763,655.904541 
z"/>
<path fill="#0A8B3A" opacity="1.000000" stroke="none" 
	d="
M696.304749,625.970276 
	C696.393616,634.680725 696.482483,643.391113 696.431274,652.552917 
	C695.529785,652.721924 694.438904,652.667969 694.059631,652.120728 
	C691.325623,648.176086 688.341919,648.248657 684.925415,651.187561 
	C684.617310,651.452637 683.746277,651.063416 682.918701,650.721436 
	C686.682251,642.474304 690.663818,634.483826 695.080994,626.233398 
	C695.516541,625.973328 695.910645,625.975098 695.910645,625.975098 
	C695.910645,625.975098 696.304749,625.970276 696.304749,625.970276 
z"/>
<path fill="#0A8B3A" opacity="1.000000" stroke="none" 
	d="
M366.071167,679.330078 
	C377.612518,684.112549 389.652588,686.164246 402.278168,684.101807 
	C409.458344,682.928955 415.893494,680.145325 421.722382,675.223755 
	C420.842896,676.963379 420.089478,679.557251 418.391632,680.574219 
	C402.417694,690.141602 385.869141,690.291016 369.094788,682.767456 
	C367.889618,682.226929 367.113464,680.729980 366.071167,679.330078 
z"/>
<path fill="#0A8B3A" opacity="1.000000" stroke="none" 
	d="
M459.156616,680.092285 
	C468.293304,684.632751 478.257965,685.747253 488.311859,684.541626 
	C494.356049,683.816956 500.203644,681.452637 506.518158,679.775513 
	C505.966492,680.961487 505.299011,682.811462 504.065948,683.338745 
	C489.503326,689.565857 475.001801,689.797668 460.755066,682.266357 
	C460.102570,681.921448 459.722076,681.062073 459.156616,680.092285 
z"/>
<path fill="#0A8B3A" opacity="1.000000" stroke="none" 
	d="
M504.837463,577.998779 
	C491.332367,572.884766 477.631348,572.522888 463.385254,576.955933 
	C466.379272,571.731262 472.215637,571.376953 477.112091,571.352051 
	C484.912323,571.312500 492.748627,572.871216 500.504333,574.150208 
	C502.087311,574.411194 503.381714,576.421997 504.837463,577.998779 
z"/>
<path fill="#0A8B3A" opacity="1.000000" stroke="none" 
	d="
M413.892273,575.496216 
	C404.538757,575.501099 395.067261,574.926758 385.601929,575.015015 
	C382.638062,575.042603 379.690826,576.855225 376.364136,577.865417 
	C377.869568,576.482910 379.550507,574.533325 381.658173,573.783997 
	C390.836975,570.520874 400.259338,569.873352 409.721283,572.537781 
	C411.202911,572.955017 412.431213,574.271973 413.892273,575.496216 
z"/>
<path fill="#0A8B3A" opacity="1.000000" stroke="none" 
	d="
M362.698364,591.096313 
	C359.808411,600.388184 359.046570,609.786865 363.026306,619.586609 
	C357.080109,613.929443 357.244873,606.482971 358.715607,598.984680 
	C359.250793,596.256165 361.102905,593.785950 362.698364,591.096313 
z"/>
<path fill="#0A8B3A" opacity="1.000000" stroke="none" 
	d="
M449.164062,670.156433 
	C450.199402,670.915283 451.211182,672.060791 452.309204,673.533325 
	C451.310455,672.754578 450.225464,671.648865 449.164062,670.156433 
z"/>
<path fill="#0A8B3A" opacity="1.000000" stroke="none" 
	d="
M372.887054,660.271851 
	C371.933289,660.467407 370.855072,660.408813 369.381287,660.260254 
	C370.244659,660.119446 371.503632,660.068604 372.887054,660.271851 
z"/>
<path fill="#0A8B3A" opacity="1.000000" stroke="none" 
	d="
M447.257996,667.042847 
	C447.932068,667.500366 448.561493,668.325500 449.218414,669.488770 
	C448.568390,669.021423 447.890869,668.216003 447.257996,667.042847 
z"/>
<path fill="#0A8B3A" opacity="1.000000" stroke="none" 
	d="
M461.867493,577.091309 
	C461.399811,577.753418 460.569458,578.417419 459.400330,579.123657 
	C459.875946,578.474976 460.690369,577.784058 461.867493,577.091309 
z"/>
<path fill="#068F39" opacity="1.000000" stroke="none" 
	d="
M696.449585,625.753540 
	C696.304749,625.970276 695.910645,625.975098 695.910645,625.975098 
	C695.910645,625.975098 695.516541,625.973328 695.319763,625.967957 
	C695.444214,625.526062 695.765381,625.089539 696.086548,624.652954 
	C696.255859,624.947571 696.425171,625.242126 696.449585,625.753540 
z"/>
<path fill="#0A8B3A" opacity="1.000000" stroke="none" 
	d="
M580.841736,655.583984 
	C575.911133,663.689026 568.801636,666.711792 559.839966,664.817139 
	C552.366577,663.237061 547.057556,657.545105 546.690247,648.667175 
	C546.147400,635.544617 546.067566,622.357727 546.725464,609.245117 
	C547.245117,598.888428 553.442810,593.831970 563.774658,593.526672 
	C574.578857,593.207397 581.614197,597.761780 582.286011,608.095215 
	C583.304749,623.766785 584.905151,639.621094 580.841736,655.583984 
M551.997559,625.537170 
	C552.590027,633.283508 552.724915,641.102600 553.941650,648.749634 
	C554.708496,653.570068 560.394104,657.832947 564.065796,657.860840 
	C568.976196,657.898132 575.085632,653.823975 575.445862,648.336670 
	C576.256775,635.984009 576.435303,623.529602 575.817566,611.169189 
	C575.513550,605.086182 569.861694,601.061401 564.613159,601.010254 
	C559.620667,600.961609 554.431396,605.292725 553.276306,611.210266 
	C552.424377,615.575134 552.393982,620.100342 551.997559,625.537170 
z"/>
<path fill="#009D3A" opacity="1.000000" stroke="none" 
	d="
M551.997559,625.045654 
	C552.393982,620.100342 552.424377,615.575134 553.276306,611.210266 
	C554.431396,605.292725 559.620667,600.961609 564.613159,601.010254 
	C569.861694,601.061401 575.513550,605.086182 575.817566,611.169189 
	C576.435303,623.529602 576.256775,635.984009 575.445862,648.336670 
	C575.085632,653.823975 568.976196,657.898132 564.065796,657.860840 
	C560.394104,657.832947 554.708496,653.570068 553.941650,648.749634 
	C552.724915,641.102600 552.590027,633.283508 551.997559,625.045654 
z"/>
</svg>